<?xml version="1.0" encoding="UTF-8"?>
<svg version="1.1" xmlns="http://www.w3.org/2000/svg" width="490" height="189">
<path d="M0 0 C161.7 0 323.4 0 490 0 C490 62.37 490 124.74 490 189 C328.3 189 166.6 189 0 189 C0 126.63 0 64.26 0 0 Z " fill="#FDFDFD" transform="translate(0,0)"/>
<path d="M0 0 C11.08841312 2.55886457 18.15800147 11.86843921 24 21 C28.42165187 28.99557964 31.17464003 37.07018143 33 46 C33.18433594 46.77085938 33.36867187 47.54171875 33.55859375 48.3359375 C35.73530664 61.47326663 33.54345127 75.08730234 31 88 C30.85546387 88.7523291 30.71092773 89.5046582 30.56201172 90.27978516 C28.60482146 100.2217915 25.71835629 108.96535286 21 118 C20.30583984 119.41539062 20.30583984 119.41539062 19.59765625 120.859375 C9.5711864 140.52347653 -6.69221281 152.45840565 -27 160 C-45.5738061 165.87904807 -68.15234313 163.07991815 -85.23706055 154.25366211 C-105.97612933 143.02095049 -118.27903805 126.87183974 -126 105 C-126.36222656 104.01 -126.72445312 103.02 -127.09765625 102 C-129.15609348 95.15636453 -129.18258876 88.33200619 -129.1875 81.25 C-129.19974609 80.30511719 -129.21199219 79.36023438 -129.22460938 78.38671875 C-129.22654297 77.48050781 -129.22847656 76.57429688 -129.23046875 75.640625 C-129.23457764 74.82110352 -129.23868652 74.00158203 -129.24291992 73.15722656 C-129 71 -129 71 -127 68 C-126.8040625 68.969375 -126.608125 69.93875 -126.40625 70.9375 C-121.58030372 93.16652519 -110.04250772 111.64209053 -90.8125 124.25 C-73.8039663 134.33434957 -54.71276105 136.25264182 -35.5703125 131.9765625 C-30.11072061 130.48323868 -25.07491093 128.49480916 -20 126 C-19.07960938 125.55785156 -18.15921875 125.11570312 -17.2109375 124.66015625 C-12.0013607 121.88632553 -8.31610564 119.08293671 -5.78125 113.66015625 C-2.81089086 103.54608338 -5.42231979 94.16700321 -8.80859375 84.59375 C-12.75827926 72.67994453 -12.38578122 58.04123041 -7.5 46.4375 C-6 44 -6 44 -4 42 C-1.375 42.375 -1.375 42.375 1 43 C1.01981934 43.70608398 1.03963867 44.41216797 1.06005859 45.13964844 C1.15540415 48.34346994 1.26504513 51.54664801 1.375 54.75 C1.42140625 56.41675781 1.42140625 56.41675781 1.46875 58.1171875 C1.50742188 59.18710938 1.54609375 60.25703125 1.5859375 61.359375 C1.6173584 62.34389648 1.6487793 63.32841797 1.68115234 64.34277344 C2.00102258 67.00852201 2.64368621 68.70616405 4 71 C7.40614946 70.97873538 7.40614946 70.97873538 11 70 C12.95811161 67.33483044 12.95811161 67.33483044 14 64 C14.52400391 62.73736328 14.52400391 62.73736328 15.05859375 61.44921875 C16.33907989 56.75764505 16.29049868 52.33959226 16.25 47.5 C16.25773438 46.57574219 16.26546875 45.65148438 16.2734375 44.69921875 C16.25915736 39.70830815 15.90909078 35.68035158 14 31 C13.72800781 30.12859375 13.45601562 29.2571875 13.17578125 28.359375 C10.71119049 20.90984274 7.18728309 13.81273254 1.296875 8.44921875 C0 7 0 7 -0.1875 3.3125 C-0.125625 2.219375 -0.06375 1.12625 0 0 Z " fill="#1A3F9D" transform="translate(145,9)"/>
<path d="M0 0 C3.91467216 2.14650663 6.20356227 4.78771062 8.8125 8.375 C9.534375 7.6325 10.25625 6.89 11 6.125 C15.69692769 1.53244848 18.84079996 -1.42688666 25.5625 -1.875 C30.62851573 -1.77293741 34.78406025 -0.59748279 38.51171875 3.02734375 C43.14751491 8.33662119 45.48046767 12.03129335 45.30078125 19.21875 C42.81590091 35.28101649 26.48989346 48.42616807 14.8125 58.375 C14.131875 58.98085937 13.45125 59.58671875 12.75 60.2109375 C10.8125 61.375 10.8125 61.375 8.875 61.30078125 C-3.94596604 55.54591581 -16.64285376 40.4117909 -23.1875 28.375 C-23.54585937 27.73949219 -23.90421875 27.10398437 -24.2734375 26.44921875 C-26.5640749 21.87845147 -26.96680033 17.36075098 -26.1875 12.375 C-24.24799189 6.70655665 -20.03465883 2.72639984 -15.1875 -0.625 C-9.81313291 -2.4164557 -5.11955434 -2.33676628 0 0 Z " fill="#4A99D8" transform="translate(87.1875,63.625)"/>
<path d="M0 0 C2.50370784 2.32487156 4.58995046 4.69801023 6.625 7.4375 C6.295 8.0975 5.965 8.7575 5.625 9.4375 C4.449375 8.57125 4.449375 8.57125 3.25 7.6875 C-8.81044857 -0.3623481 -23.91051396 -1.38190676 -37.90234375 1.05078125 C-51.37796289 5.07044688 -61.5233221 14.79592462 -68.234375 26.87109375 C-71.43469964 34.07182418 -72.88310316 40.35713555 -72.75 48.25 C-72.73984863 49.1251123 -72.72969727 50.00022461 -72.71923828 50.90185547 C-72.35947961 65.98662029 -67.25471537 77.86260424 -56.375 88.4375 C-54.1058147 90.25905305 -51.81597938 91.84339102 -49.375 93.4375 C-51.375 94.4375 -51.375 94.4375 -53.87890625 93.6875 C-70.45891557 86.91150641 -80.44072055 75.7275533 -87.375 59.4375 C-92.54391553 46.38690477 -91.72054175 32.25690104 -86.375 19.4375 C-80.03242874 5.73683343 -69.92680953 -5.25494433 -55.5546875 -10.85546875 C-35.32090222 -17.41875752 -16.54764752 -13.1638393 0 0 Z " fill="#229EE3" transform="translate(118.375,35.5625)"/>
<path d="M0 0 C3.91467216 2.14650663 6.20356227 4.78771062 8.8125 8.375 C9.534375 7.6325 10.25625 6.89 11 6.125 C15.69692769 1.53244848 18.84079996 -1.42688666 25.5625 -1.875 C30.62851573 -1.77293741 34.78406025 -0.59748279 38.51171875 3.02734375 C43.14657908 8.33554941 45.46968889 12.02798943 45.30859375 19.2109375 C43.57898175 30.24232113 35.40145978 38.75550115 27.8125 46.375 C27.8125 42.82348895 28.35715213 42.44067271 30.6875 39.9375 C34.76717717 35.53263117 36.09315829 32.51550648 36.0625 26.4375 C36.06765625 25.41785156 36.0728125 24.39820312 36.078125 23.34765625 C35.80368605 20.27636157 35.22938597 18.1068726 33.8125 15.375 C31.36961372 14.06431667 31.36961372 14.06431667 28.8125 13.375 C28.1525 13.045 27.4925 12.715 26.8125 12.375 C20.63113237 11.85988603 17.81304772 12.39729158 12.8125 16.375 C12.02875 16.9525 11.245 17.53 10.4375 18.125 C9.90125 18.5375 9.365 18.95 8.8125 19.375 C8.33039063 18.95347656 7.84828125 18.53195313 7.3515625 18.09765625 C6.71992187 17.54980469 6.08828125 17.00195312 5.4375 16.4375 C4.81101562 15.89222656 4.18453125 15.34695312 3.5390625 14.78515625 C0.39402642 12.21647294 -2.12048792 12.0944112 -6.16015625 12.16015625 C-10.22836316 12.59127644 -12.50907203 14.78825149 -15.5 17.375 C-18.08609205 21.97249698 -17.90926247 26.22161596 -17.1875 31.375 C-15.59190062 36.27576951 -13.12022103 40.00409626 -9.1875 43.375 C-9.5175 44.035 -9.8475 44.695 -10.1875 45.375 C-17.89778362 37.78710183 -26.29311873 27.80358073 -26.875 16.4375 C-26.1874457 9.29751301 -22.193916 4.9727719 -16.87109375 0.5390625 C-11.75251014 -3.00000459 -5.41397592 -2.47115189 0 0 Z " fill="#1C429E" transform="translate(87.1875,63.625)"/>
<path d="M0 0 C4.67005398 5.22242596 4.61916353 10.06868757 4.6875 16.875 C4.73012234 18.78913048 4.77564702 20.70319875 4.82421875 22.6171875 C4.84532715 23.52694336 4.86643555 24.43669922 4.88818359 25.37402344 C5.04086994 28.95981895 5.48380435 32.44958111 6 36 C3 38 3 38 0.5 37.8125 C-2.13662075 36.95559826 -3.25689748 36.11007147 -5 34 C-5.721875 34.28875 -6.44375 34.5775 -7.1875 34.875 C-8.115625 35.24625 -9.04375 35.6175 -10 36 C-10.721875 36.37125 -11.44375 36.7425 -12.1875 37.125 C-16.48033252 38.4605479 -20.55471235 38.71721095 -25 38 C-28.1206302 36.31435839 -30.3910874 34.21782521 -32 31 C-32.65388767 26.24530251 -32.74288423 23.02692821 -29.875 19.0625 C-26.778187 16.84087328 -24.69115796 15.93956748 -21 15 C-20.02804687 14.7421875 -19.05609375 14.484375 -18.0546875 14.21875 C-9.52893519 12 -9.52893519 12 -6 12 C-6.96776098 8.20452079 -6.96776098 8.20452079 -9 5 C-12.05369143 4.55835041 -14.95063529 4.52207572 -18 5 C-20.98119541 7.22976163 -20.98119541 7.22976163 -23 10 C-23.66 10.66 -24.32 11.32 -25 12 C-29.55555556 11.44444444 -29.55555556 11.44444444 -31 10 C-31.296875 7.671875 -31.296875 7.671875 -31 5 C-29.390625 3.015625 -29.390625 3.015625 -27.25 1.25 C-26.55390625 0.65703125 -25.8578125 0.0640625 -25.140625 -0.546875 C-18.60742607 -4.98182026 -6.4456925 -4.5651007 0 0 Z " fill="#17A762" transform="translate(318,85)"/>
<path d="M0 0 C1.134375 0.020625 2.26875 0.04125 3.4375 0.0625 C7.18359289 6.87198661 9.60435488 14.01594133 12.01171875 21.37353516 C12.69350432 23.45583835 13.38510016 25.53469477 14.078125 27.61328125 C17.4375 37.76668937 17.4375 37.76668937 17.4375 40.0625 C18.0975 40.0625 18.7575 40.0625 19.4375 40.0625 C19.69789063 38.78246094 19.95828125 37.50242188 20.2265625 36.18359375 C21.37677676 31.01571543 23.0243346 26.1024909 24.8125 21.125 C25.12268066 20.25125732 25.43286133 19.37751465 25.75244141 18.47729492 C31.71427082 1.78572918 31.71427082 1.78572918 33.4375 0.0625 C36.375 -0.125 36.375 -0.125 39.4375 0.0625 C40.0975 0.7225 40.7575 1.3825 41.4375 2.0625 C41.32951623 10.10238234 37.93930265 17.45580485 35.125 24.875 C34.63265783 26.19045393 34.14111581 27.50620763 33.65039062 28.82226562 C32.92957468 30.75520503 32.20673667 32.68719703 31.47555542 34.61624146 C30.38155856 37.50474188 29.32391733 40.39693508 28.33056641 43.32177734 C28.0010498 44.29195801 27.6715332 45.26213867 27.33203125 46.26171875 C26.92174683 47.51795044 26.92174683 47.51795044 26.50317383 48.79956055 C25.21343264 51.53830305 23.76635795 53.13861375 21.4375 55.0625 C17.9375 55.625 17.9375 55.625 14.4375 55.0625 C10.13772997 50.89199437 8.50013791 45.63295752 6.51171875 40.125 C6.15987015 39.16730713 5.80802155 38.20961426 5.44551086 37.22290039 C4.70713077 35.20407272 3.97368158 33.18343557 3.24487305 31.16113281 C2.126757 28.06736153 0.98532491 24.9828925 -0.15820312 21.8984375 C-0.87382203 19.93281031 -1.58806224 17.96668052 -2.30078125 16 C-2.64337479 15.07904541 -2.98596832 14.15809082 -3.33894348 13.20922852 C-3.64644028 12.34483154 -3.95393707 11.48043457 -4.27075195 10.58984375 C-4.54514603 9.83437256 -4.8195401 9.07890137 -5.10224915 8.30053711 C-5.6590063 5.59322399 -5.30840682 3.70589963 -4.5625 1.0625 C-3.5625 0.0625 -3.5625 0.0625 0 0 Z " fill="#15A660" transform="translate(192.5625,67.9375)"/>
<path d="M0 0 C0.99 0.103125 1.98 0.20625 3 0.3125 C5.25870108 3.70055161 5.29259413 5.08600741 5.4140625 9.07421875 C5.45273437 10.19248047 5.49140625 11.31074219 5.53125 12.46289062 C5.5621875 13.63013672 5.593125 14.79738281 5.625 16 C5.66367187 17.17884766 5.70234375 18.35769531 5.7421875 19.57226562 C5.83654391 22.48551977 5.92213161 25.39876607 6 28.3125 C6.39791748 27.88316162 6.79583496 27.45382324 7.20581055 27.01147461 C9.01718003 25.07540082 10.85165745 23.16287091 12.6875 21.25 C13.62625977 20.23583008 13.62625977 20.23583008 14.58398438 19.20117188 C16.3233903 17.40712493 17.96474507 15.76362006 20 14.3125 C22.95703125 14.37890625 22.95703125 14.37890625 25 15.3125 C25.7109375 17.55078125 25.7109375 17.55078125 26 20.3125 C24.6015625 22.48046875 24.6015625 22.48046875 22.625 24.5 C19.9841897 27.1742923 19.9841897 27.1742923 18 30.3125 C18.90417591 32.21683308 18.90417591 32.21683308 20.30859375 34.26953125 C21.05786133 35.44418945 21.05786133 35.44418945 21.82226562 36.64257812 C22.89257099 38.28750934 23.96545842 39.93076358 25.04101562 41.57226562 C25.7922168 42.75272461 25.7922168 42.75272461 26.55859375 43.95703125 C27.02579834 44.67221924 27.49300293 45.38740723 27.97436523 46.12426758 C29.19778338 48.73447869 29.33640207 50.46121878 29 53.3125 C27 55.3125 27 55.3125 24.59765625 55.72265625 C22 55.3125 22 55.3125 20.12109375 53.37109375 C19.56550781 52.50613281 19.00992187 51.64117187 18.4375 50.75 C17.84710938 49.84121094 17.25671875 48.93242188 16.6484375 47.99609375 C16.10445313 47.11050781 15.56046875 46.22492188 15 45.3125 C14.55914062 44.60222656 14.11828125 43.89195313 13.6640625 43.16015625 C11 38.69171099 11 38.69171099 11 36.3125 C8.33598317 37.58448441 8.33598317 37.58448441 6 40.3125 C5.50950349 43.12325827 5.375107 45.80471063 5.3359375 48.65625 C4.94460858 51.7504787 4.15848958 53.09219211 2 55.3125 C-0.5625 55.75 -0.5625 55.75 -3 55.3125 C-5.16445492 52.06581762 -5.25197394 51.16384041 -5.25878906 47.41381836 C-5.26509338 46.41946274 -5.27139771 45.42510712 -5.27789307 44.40061951 C-5.2738446 43.32868851 -5.26979614 42.25675751 -5.265625 41.15234375 C-5.26753845 40.05152969 -5.2694519 38.95071564 -5.27142334 37.81654358 C-5.27278479 35.48894014 -5.26909113 33.1613291 -5.26074219 30.83374023 C-5.25003217 27.26073253 -5.2606443 23.68822649 -5.2734375 20.11523438 C-5.2721161 17.85676972 -5.26955411 15.59830538 -5.265625 13.33984375 C-5.27169769 11.7289109 -5.27169769 11.7289109 -5.27789307 10.08543396 C-5.27158875 9.0942305 -5.26528442 8.10302704 -5.25878906 7.08178711 C-5.25719788 6.20703232 -5.25560669 5.33227753 -5.25396729 4.43101501 C-4.82190064 0.8268513 -3.45810405 0.36021917 0 0 Z " fill="#14A660" transform="translate(449,67.6875)"/>
<path d="M0 0 C3.24208567 0.35049575 4.61527704 0.56221181 6.8125 3.0625 C7.204375 3.701875 7.59625 4.34125 8 5 C8.763125 4.360625 9.52625 3.72125 10.3125 3.0625 C14.10942933 0.14857749 17.17700665 -0.3464126 21.9375 -0.28515625 C26.08418047 0.28815374 28.83288598 2.78346139 31.64306641 5.71264648 C33.50283907 8.8476249 33.38834063 11.21687051 33.3984375 14.84765625 C33.40130768 15.50076279 33.40417786 16.15386932 33.40713501 16.82676697 C33.4091703 18.20263541 33.40367778 19.57853313 33.39111328 20.9543457 C33.37502359 23.05941344 33.39099077 25.16256911 33.41015625 27.26757812 C33.40817423 28.60677506 33.40433139 29.94597081 33.3984375 31.28515625 C33.39505371 32.50082275 33.39166992 33.71648926 33.38818359 34.96899414 C33 38 33 38 31.63525391 39.92749023 C30 41 30 41 27.4375 40.875 C25 40 25 40 23 37 C22.72875977 34.41210938 22.72875977 34.41210938 22.69140625 31.34375 C22.66626953 30.23902344 22.64113281 29.13429688 22.61523438 27.99609375 C22.58007896 25.66542022 22.5488287 23.33468451 22.52148438 21.00390625 C22.49505859 19.89917969 22.46863281 18.79445313 22.44140625 17.65625 C22.42795166 16.64369141 22.41449707 15.63113281 22.40063477 14.58789062 C22.20088794 11.97806095 22.20088794 11.97806095 20.65600586 10.17382812 C18.03057809 8.31284379 16.12140908 8.55408442 13 9 C10.36689302 10.92145645 9.21326214 12.15745131 8.40991211 15.33129883 C8.01254702 17.91831357 7.82831724 20.39681137 7.75390625 23.01171875 C7.72103516 23.93404297 7.68816406 24.85636719 7.65429688 25.80664062 C7.59272974 27.73880079 7.53548879 29.67110332 7.48242188 31.60351562 C7.44826172 32.52197266 7.41410156 33.44042969 7.37890625 34.38671875 C7.3538501 35.22420654 7.32879395 36.06169434 7.30297852 36.92456055 C7 39 7 39 5 41 C2.5625 41.375 2.5625 41.375 0 41 C-2.55076277 38.57186273 -2.98724109 37.11240681 -3.38818359 33.58007812 C-3.40789292 32.23060834 -3.41033843 30.88081123 -3.3984375 29.53125 C-3.40130768 28.813927 -3.40417786 28.096604 -3.40713501 27.35754395 C-3.40917169 25.84463713 -3.40366944 24.33170374 -3.39111328 22.81884766 C-3.37505237 20.50753716 -3.39097366 18.19797508 -3.41015625 15.88671875 C-3.40817375 14.41405865 -3.40432992 12.94139964 -3.3984375 11.46875 C-3.40451019 10.78010864 -3.41058289 10.09146729 -3.4168396 9.38195801 C-3.35731396 5.30632155 -2.85626053 2.96877129 0 0 Z " fill="#18A762" transform="translate(400,82)"/>
<path d="M0 0 C3.0625 0.375 3.0625 0.375 4.7355957 1.81347656 C6.75830899 5.71822501 6.43202485 9.4023207 6.35546875 13.734375 C6.35122391 14.63875305 6.34697906 15.5431311 6.34260559 16.47491455 C6.32583574 19.35858139 6.28818669 22.241545 6.25 25.125 C6.23495097 27.08202114 6.22126295 29.03905326 6.20898438 30.99609375 C6.17593774 35.78933275 6.12416705 40.58204721 6.0625 45.375 C6.7738208 45.35928955 7.4851416 45.3435791 8.21801758 45.32739258 C11.43693104 45.26508085 14.65571768 45.22602133 17.875 45.1875 C18.99455078 45.16236328 20.11410156 45.13722656 21.26757812 45.11132812 C22.34072266 45.10166016 23.41386719 45.09199219 24.51953125 45.08203125 C25.50928955 45.0663208 26.49904785 45.05061035 27.51879883 45.03442383 C30.0625 45.375 30.0625 45.375 31.9206543 46.72924805 C33.0625 48.375 33.0625 48.375 32.875 51 C32.0625 53.375 32.0625 53.375 30.0625 54.375 C25.51288721 54.61019577 20.95951347 54.60339174 16.40454102 54.61523438 C14.13716051 54.6249479 11.87068361 54.65597393 9.60351562 54.6875 C8.16406789 54.69402942 6.72461366 54.69928014 5.28515625 54.703125 C3.97297119 54.7124707 2.66078613 54.72181641 1.30883789 54.73144531 C-1.9375 54.375 -1.9375 54.375 -3.61712646 53.15315247 C-5.34141242 50.83104948 -5.31192583 49.44551385 -5.30981445 46.56811523 C-5.31604324 45.59378036 -5.32227203 44.6194455 -5.32868958 43.61558533 C-5.31947983 42.56552811 -5.31027008 41.51547089 -5.30078125 40.43359375 C-5.30127975 39.35497574 -5.30177826 38.27635773 -5.30229187 37.16505432 C-5.2999507 34.88451292 -5.29021968 32.60396897 -5.27368164 30.32348633 C-5.25006978 26.82284584 -5.25312293 23.32296559 -5.25976562 19.82226562 C-5.25418972 17.60937044 -5.24708039 15.39647847 -5.23828125 13.18359375 C-5.23919266 12.1315123 -5.24010406 11.07943085 -5.24104309 9.99546814 C-5.23151108 9.02428543 -5.22197906 8.05310272 -5.2121582 7.05249023 C-5.20755081 6.19550034 -5.20294342 5.33851044 -5.19819641 4.45555115 C-4.75559034 0.92322565 -3.38043025 0.43154429 0 0 Z " fill="#17A762" transform="translate(337.9375,67.625)"/>
<path d="M0 0 C2.5625 0.3125 2.5625 0.3125 4.2109375 1.4765625 C6.09882761 4.0410375 5.86099149 5.85524119 5.75 9 C5.72292969 9.99386719 5.69585937 10.98773438 5.66796875 12.01171875 C5.63316406 12.77097656 5.59835937 13.53023437 5.5625 14.3125 C7.8725 14.6425 10.1825 14.9725 12.5625 15.3125 C12.8925 16.9625 13.2225 18.6125 13.5625 20.3125 C11.5625 21.3125 11.5625 21.3125 5.5625 21.3125 C5.8925 29.2325 6.2225 37.1525 6.5625 45.3125 C9.5325 45.6425 12.5025 45.9725 15.5625 46.3125 C15.8925 47.9625 16.2225 49.6125 16.5625 51.3125 C13.29699219 54.24910774 10.98409706 54.79254545 6.625 54.875 C5.60535156 54.91753906 4.58570313 54.96007812 3.53515625 55.00390625 C0.26594796 54.24352535 -1.50044977 53.22020797 -3.51538086 50.4987793 C-5.63300638 45.47803887 -4.93083255 39.77901521 -4.75 34.4375 C-4.71616211 32.54644531 -4.71616211 32.54644531 -4.68164062 30.6171875 C-4.62287581 27.51440501 -4.54075851 24.41406801 -4.4375 21.3125 C-6.0875 21.3125 -7.7375 21.3125 -9.4375 21.3125 C-10.0625 18.9375 -10.0625 18.9375 -10.4375 16.3125 C-9.7775 15.6525 -9.1175 14.9925 -8.4375 14.3125 C-7.1175 14.3125 -5.7975 14.3125 -4.4375 14.3125 C-4.46070313 13.46945313 -4.48390625 12.62640625 -4.5078125 11.7578125 C-4.53488281 10.11425781 -4.53488281 10.11425781 -4.5625 8.4375 C-4.58570313 7.34695312 -4.60890625 6.25640625 -4.6328125 5.1328125 C-4.38045663 1.4887938 -3.66627079 0.47003472 0 0 Z " fill="#15A661" transform="translate(267.4375,68.6875)"/>
<path d="M0 0 C2.4375 0.8125 2.4375 0.8125 4.4375 2.8125 C4.64940483 5.34669345 4.74148746 7.76887776 4.73828125 10.3046875 C4.74256638 11.04703644 4.7468515 11.78938538 4.75126648 12.55422974 C4.7570135 14.12614929 4.75750729 15.69809544 4.75317383 17.27001953 C4.75002119 19.67136302 4.77344087 22.07146585 4.79882812 24.47265625 C4.80110188 25.99999845 4.80180426 27.52734395 4.80078125 29.0546875 C4.809991 29.77147675 4.81920074 30.48826599 4.82868958 31.22677612 C4.79979427 34.35321509 4.60408996 36.51203512 3.07495117 39.27001953 C1.4375 40.8125 1.4375 40.8125 -1.125 41.25 C-1.929375 41.105625 -2.73375 40.96125 -3.5625 40.8125 C-6.02913039 37.11255442 -5.86855136 34.25168703 -5.86328125 29.96875 C-5.86756638 29.20324829 -5.8718515 28.43774658 -5.87626648 27.64904785 C-5.88200517 26.03182972 -5.88251342 24.41458577 -5.87817383 22.79736328 C-5.87501149 20.32149347 -5.89848531 17.84681603 -5.92382812 15.37109375 C-5.92610092 13.79948068 -5.92680471 12.22786438 -5.92578125 10.65625 C-5.934991 9.91556274 -5.94420074 9.17487549 -5.95368958 8.41174316 C-5.90777782 3.3198066 -5.90777782 3.3198066 -4.19995117 0.81054688 C-2.5625 -0.1875 -2.5625 -0.1875 0 0 Z " fill="#16A661" transform="translate(246.5625,82.1875)"/>
<path d="M0 0 C2.5 0.25 2.5 0.25 4.5 2.25 C4.69982025 5.02335427 4.779792 7.69469643 4.765625 10.46875 C4.76753845 11.28243042 4.7694519 12.09611084 4.77142334 12.93444824 C4.77278527 14.656009 4.76908828 16.37758003 4.76074219 18.09912109 C4.75004258 20.7394917 4.760637 23.37918189 4.7734375 26.01953125 C4.77211591 27.69010567 4.76955352 29.36067967 4.765625 31.03125 C4.76967346 31.82398315 4.77372192 32.61671631 4.77789307 33.43347168 C4.72992027 39.02007973 4.72992027 39.02007973 2.5 41.25 C0 41.5 0 41.5 -2.5 41.25 C-5.074325 38.675675 -4.74775746 36.94287354 -4.77789307 33.43347168 C-4.7738446 32.64073853 -4.76979614 31.84800537 -4.765625 31.03125 C-4.76753845 30.21756958 -4.7694519 29.40388916 -4.77142334 28.56555176 C-4.77278527 26.843991 -4.76908828 25.12241997 -4.76074219 23.40087891 C-4.75004258 20.7605083 -4.760637 18.12081811 -4.7734375 15.48046875 C-4.77211591 13.80989433 -4.76955352 12.13932033 -4.765625 10.46875 C-4.76967346 9.67601685 -4.77372192 8.88328369 -4.77789307 8.06652832 C-4.71267176 0.47126718 -4.71267176 0.47126718 0 0 Z " fill="#11A45E" transform="translate(382.5,81.75)"/>
<path d="M0 0 C5.98025588 0.83322789 9.73828728 3.86597905 14 8 C19.54793712 15.77950959 20.31861993 24.93319367 20.1875 34.1875 C20.18685547 35.06341797 20.18621094 35.93933594 20.18554688 36.84179688 C20.15707656 41.01428014 20.05236636 44.93365637 19 49 C18.67 49 18.34 49 18 49 C17.87625 47.8140625 17.7525 46.628125 17.625 45.40625 C15.85267698 30.74804233 11.79001213 18.34440013 1.27734375 7.6171875 C0 6 0 6 -0.4375 2.5 C-0.293125 1.675 -0.14875 0.85 0 0 Z " fill="#21459E" transform="translate(139,22)"/>
<path d="M0 0 C8.79871863 -0.76882007 8.79871863 -0.76882007 13.125 2 C15.19644396 5.31431034 15.75664966 7.21766618 15.47265625 11.0625 C14.59426669 14.66317126 13.05067422 16.00772296 10 18 C6.94554806 18.4459811 4.05538493 18.44189452 1 18 C0 17 0 17 -0.09765625 13.18359375 C-0.09098089 11.60153318 -0.07901875 10.01948841 -0.0625 8.4375 C-0.05798828 7.63119141 -0.05347656 6.82488281 -0.04882812 5.99414062 C-0.03700518 3.99606244 -0.01906914 1.99802217 0 0 Z " fill="#101010" transform="translate(204,136)"/>
<path d="M0 0 C0.99 0 1.98 0 3 0 C3 1.98 3 3.96 3 6 C3.66 5.67 4.32 5.34 5 5 C8 4.8125 8 4.8125 11 5 C13.59335905 7.59335905 13.27726563 9.48747032 13.36328125 13.02734375 C12.88534167 15.62260707 12.13908934 16.47477736 10 18 C7.7734375 18.328125 7.7734375 18.328125 5.375 18.25 C4.18003906 18.22679687 4.18003906 18.22679687 2.9609375 18.203125 C1 18 1 18 0 17 C-0.07325168 14.13732433 -0.09238205 11.299281 -0.0625 8.4375 C-0.05798828 7.63119141 -0.05347656 6.82488281 -0.04882812 5.99414062 C-0.03700518 3.99606244 -0.01906914 1.99802217 0 0 Z " fill="#171717" transform="translate(265,136)"/>
<path d="M0 0 C0.98871094 -0.01417969 1.97742188 -0.02835938 2.99609375 -0.04296875 C5.5625 0.1875 5.5625 0.1875 7.5625 2.1875 C7.9375 5.125 7.9375 5.125 7.5625 8.1875 C5.9375 10.0625 5.9375 10.0625 3.5625 11.1875 C0.3125 11.375 0.3125 11.375 -2.4375 11.1875 C-2.4375 13.1675 -2.4375 15.1475 -2.4375 17.1875 C-3.7575 17.1875 -5.0775 17.1875 -6.4375 17.1875 C-6.46434679 14.54159986 -6.48426357 11.89596904 -6.5 9.25 C-6.50837891 8.49525391 -6.51675781 7.74050781 -6.52539062 6.96289062 C-6.53402441 5.03755687 -6.48974333 3.11214419 -6.4375 1.1875 C-4.69900372 -0.55099628 -2.3588363 0.01533704 0 0 Z " fill="#1C1C1C" transform="translate(349.4375,135.8125)"/>
<path d="M0 0 C0.99 0 1.98 0 3 0 C3 5.61 3 11.22 3 17 C-5.72807018 18.74561404 -5.72807018 18.74561404 -8.8125 16.9375 C-10.65150018 13.93702602 -10.30671285 11.43518387 -10 8 C-9.34 7.01 -8.68 6.02 -8 5 C-4.92078868 4.74339906 -2.78863007 4.60568496 0 6 C0 4.02 0 2.04 0 0 Z " fill="#181818" transform="translate(331,136)"/>
<path d="M0 0 C0.30347349 7.89031079 0.30347349 7.89031079 -2 11 C-5.62219721 13.78630555 -9.64272447 13.28111455 -14 13 C-16 11 -16 11 -16.25 8 C-16 5 -16 5 -14 3 C-12.20961532 2.38919584 -10.39201699 1.85606821 -8.5625 1.375 C-7.59441406 1.11460938 -6.62632812 0.85421875 -5.62890625 0.5859375 C-3 0 -3 0 0 0 Z " fill="#F8FCFA" transform="translate(312,103)"/>
<path d="M0 0 C2.54685809 0.0785782 3.81954973 0.17584047 6.0625 1.4375 C7.566606 4.25769875 7.51162849 6.16860056 7.0625 9.3125 C5.4375 11.6875 5.4375 11.6875 3.0625 13.3125 C-0.08139944 13.76162849 -1.99230125 13.816606 -4.8125 12.3125 C-6.69071874 8.97344446 -6.23829454 6.10251126 -5.9375 2.3125 C-3.9375 0.3125 -3.9375 0.3125 0 0 Z " fill="#1A1A1A" transform="translate(286.9375,140.6875)"/>
<path d="M0 0 C1.45792884 -0.05399736 2.91642712 -0.09279177 4.375 -0.125 C5.18710937 -0.14820313 5.99921875 -0.17140625 6.8359375 -0.1953125 C9 0 9 0 11 2 C11.1953125 4.6015625 11.1953125 4.6015625 11.125 7.625 C11.10695313 8.62789062 11.08890625 9.63078125 11.0703125 10.6640625 C11.03550781 11.82035156 11.03550781 11.82035156 11 13 C10.41476562 12.82339844 9.82953125 12.64679688 9.2265625 12.46484375 C6.77611815 11.81692202 6.77611815 11.81692202 3.375 12.5625 C1.704375 12.7790625 1.704375 12.7790625 0 13 C-0.66 12.34 -1.32 11.68 -2 11 C-1.625 8.375 -1.625 8.375 -1 6 C0.134375 5.71125 1.26875 5.4225 2.4375 5.125 C3.613125 4.75375 4.78875 4.3825 6 4 C6.33 3.34 6.66 2.68 7 2 C5.35 2 3.7 2 2 2 C2 2.66 2 3.32 2 4 C1.01 4 0.02 4 -1 4 C-0.67 2.68 -0.34 1.36 0 0 Z " fill="#1A1A1A" transform="translate(360,141)"/>
<path d="M0 0 C1.45792884 -0.05399736 2.91642712 -0.09279177 4.375 -0.125 C5.18710938 -0.14820313 5.99921875 -0.17140625 6.8359375 -0.1953125 C9 0 9 0 11 2 C11.1953125 4.6015625 11.1953125 4.6015625 11.125 7.625 C11.10695312 8.62789062 11.08890625 9.63078125 11.0703125 10.6640625 C11.03550781 11.82035156 11.03550781 11.82035156 11 13 C10.41476563 12.82339844 9.82953125 12.64679688 9.2265625 12.46484375 C6.77611815 11.81692202 6.77611815 11.81692202 3.375 12.5625 C1.704375 12.7790625 1.704375 12.7790625 0 13 C-0.66 12.34 -1.32 11.68 -2 11 C-1.625 8.375 -1.625 8.375 -1 6 C0.134375 5.71125 1.26875 5.4225 2.4375 5.125 C3.613125 4.75375 4.78875 4.3825 6 4 C6.33 3.34 6.66 2.68 7 2 C5.35 2 3.7 2 2 2 C2 2.66 2 3.32 2 4 C1.01 4 0.02 4 -1 4 C-0.67 2.68 -0.34 1.36 0 0 Z " fill="#1A1A1A" transform="translate(223,141)"/>
<path d="M0 0 C6.0546875 -0.1953125 6.0546875 -0.1953125 8 0 C10 2 10 2 10.1953125 4.6015625 C10.17210937 5.59929687 10.14890625 6.59703125 10.125 7.625 C10.10695313 8.62789062 10.08890625 9.63078125 10.0703125 10.6640625 C10.03550781 11.82035156 10.03550781 11.82035156 10 13 C9.12408203 12.73703125 9.12408203 12.73703125 8.23046875 12.46875 C5.04349635 11.79898347 2.19415135 12.51786395 -1 13 C-2 12 -2 12 -2.0625 9.4375 C-2.041875 8.633125 -2.02125 7.82875 -2 7 C-0.865625 6.54625 0.26875 6.0925 1.4375 5.625 C5.04721692 4.42904194 5.04721692 4.42904194 6 2 C4.8553125 2.495 4.8553125 2.495 3.6875 3 C1 4 1 4 -2 4 C-1.34 2.68 -0.68 1.36 0 0 Z " fill="#111111" transform="translate(298,141)"/>
<path d="M0 0 C1.32 0 2.64 0 4 0 C4.33 1.65 4.66 3.3 5 5 C5.969375 4.979375 6.93875 4.95875 7.9375 4.9375 C11 5 11 5 12 6 C12.07244053 8.01964199 12.08377188 10.04167124 12.0625 12.0625 C12.05347656 13.16722656 12.04445313 14.27195313 12.03515625 15.41015625 C12.02355469 16.26480469 12.01195312 17.11945313 12 18 C11.01 18 10.02 18 9 18 C8.67 14.7 8.34 11.4 8 8 C7.01 8 6.02 8 5 8 C4.67 10.97 4.34 13.94 4 17 C2.68 17 1.36 17 0 17 C0 11.39 0 5.78 0 0 Z " fill="#2A2A2A" transform="translate(250,136)"/>
<path d="M0 0 C2.79469693 3.2240498 3.70744892 6.04843718 4.625 10.1875 C5.1957186 13.90108369 5.1957186 13.90108369 7 17 C7.27887021 20.45038505 7.23178779 23.91468039 7.25 27.375 C7.270625 28.34695312 7.29125 29.31890625 7.3125 30.3203125 C7.31765625 31.25359375 7.3228125 32.186875 7.328125 33.1484375 C7.34214355 34.43500244 7.34214355 34.43500244 7.35644531 35.74755859 C6.92935937 38.44639074 6.08933561 39.30991367 4 41 C3.16321711 38.11901217 2.9178828 35.68329151 3.04296875 32.69140625 C3.31525775 23.25451575 3.2526578 15.42430953 -0.22265625 6.53125 C-1.05165393 3.83180027 -0.97716365 2.60576973 0 0 Z " fill="#F2F4F7" transform="translate(155,29)"/>
<path d="M0 0 C3.5625 0.3125 3.5625 0.3125 5.5 1.5625 C6.5625 3.3125 6.5625 3.3125 6.5625 7.3125 C3.5925 7.3125 0.6225 7.3125 -2.4375 7.3125 C-2.1075 8.3025 -1.7775 9.2925 -1.4375 10.3125 C1.2025 9.9825 3.8425 9.6525 6.5625 9.3125 C5.5625 12.3125 5.5625 12.3125 3.5625 13.3125 C-1.61181193 13.75286697 -1.61181193 13.75286697 -4.3125 12.3125 C-6.19071874 8.97344446 -5.73829454 6.10251126 -5.4375 2.3125 C-3.4375 0.3125 -3.4375 0.3125 0 0 Z " fill="#4B4B4B" transform="translate(394.4375,140.6875)"/>
<path d="M0 0 C0.9075 0.226875 1.815 0.45375 2.75 0.6875 C3.08 2.0075 3.41 3.3275 3.75 4.6875 C1.44 4.0275 -0.87 3.3675 -3.25 2.6875 C-1.62633534 5.93482932 1.50387839 6.38905136 4.75 7.6875 C4.375 10.125 4.375 10.125 3.75 12.6875 C0.79335481 14.1658226 -1.99229737 13.74782783 -5.25 13.6875 C-5.91 12.3675 -6.57 11.0475 -7.25 9.6875 C-6.26 9.3575 -5.27 9.0275 -4.25 8.6875 C-3.92 9.3475 -3.59 10.0075 -3.25 10.6875 C-1.22536745 11.33963292 -1.22536745 11.33963292 0.75 11.6875 C0.42 10.6975 0.09 9.7075 -0.25 8.6875 C-1.24 8.378125 -2.23 8.06875 -3.25 7.75 C-4.24 7.399375 -5.23 7.04875 -6.25 6.6875 C-7.125 4.5625 -7.125 4.5625 -7.25 2.6875 C-4.61280971 0.1517401 -3.74095095 -0.35970682 0 0 Z " fill="#1E1E1E" transform="translate(243.25,140.3125)"/>
<path d="M0 0 C1.60875 -0.04125 3.2175 -0.0825 4.875 -0.125 C5.77992188 -0.14820313 6.68484375 -0.17140625 7.6171875 -0.1953125 C10 0 10 0 12 2 C12.1953125 4.3828125 12.1953125 4.3828125 12.125 7.125 C12.10695313 8.03507813 12.08890625 8.94515625 12.0703125 9.8828125 C12.04710937 10.58148438 12.02390625 11.28015625 12 12 C10.68 12 9.36 12 8 12 C8 8.7 8 5.4 8 2 C6.02 2.99 6.02 2.99 4 4 C3.3006486 6.18541552 3.3006486 6.18541552 3.25 8.625 C3.19328125 9.44226563 3.1365625 10.25953125 3.078125 11.1015625 C3.05234375 11.72804687 3.0265625 12.35453125 3 13 C2.01 12.67 1.02 12.34 0 12 C0 8.04 0 4.08 0 0 Z " fill="#232323" transform="translate(374,141)"/>
<path d="M0 0 C6 0 6 0 8 1 C8.05399736 2.45792884 8.09279177 3.91642712 8.125 5.375 C8.14820313 6.18710938 8.17140625 6.99921875 8.1953125 7.8359375 C8 10 8 10 6 12 C4.02 12 2.04 12 0 12 C0 8.04 0 4.08 0 0 Z " fill="#F3F3F3" transform="translate(207,139)"/>
<path d="M0 0 C3 0.25 3 0.25 5 2.25 C5.25 4.75 5.25 4.75 5 7.25 C3 9.25 3 9.25 0 9.5 C-3 9.25 -3 9.25 -5 7.25 C-5.25 4.75 -5.25 4.75 -5 2.25 C-3 0.25 -3 0.25 0 0 Z " fill="#1BA864" transform="translate(246,67.75)"/>
<path d="M0 0 C2.5 0.25 2.5 0.25 4.5 2.25 C4.6875 5.3125 4.6875 5.3125 4.5 8.25 C3.5 9.25 3.5 9.25 0 9.375 C-3.5 9.25 -3.5 9.25 -4.5 8.25 C-4.6875 5.3125 -4.6875 5.3125 -4.5 2.25 C-2.5 0.25 -2.5 0.25 0 0 Z " fill="#15A660" transform="translate(382.5,67.75)"/>
<path d="M0 0 C2.97 0 5.94 0 9 0 C9 0.99 9 1.98 9 3 C7.68 3 6.36 3 5 3 C4.67 5.97 4.34 8.94 4 12 C2.68 12 1.36 12 0 12 C0 8.04 0 4.08 0 0 Z " fill="#232323" transform="translate(311,141)"/>
<path d="M0 0 C1.04940314 3.14820941 1.066855 3.99340864 0 7 C-0.66 7.66 -1.32 8.32 -2 9 C-2 9.33 -2 9.66 -2 10 C-4.375 10.125 -4.375 10.125 -7 10 C-9 8 -9 8 -9.125 5.5625 C-8 3 -8 3 -6.14453125 2.0078125 C-4.11246238 1.25253027 -2.08710424 0.58476953 0 0 Z " fill="#212121" transform="translate(367,144)"/>
<path d="M0 0 C1.04940314 3.14820941 1.066855 3.99340864 0 7 C-0.66 7.66 -1.32 8.32 -2 9 C-2 9.33 -2 9.66 -2 10 C-4.375 10.125 -4.375 10.125 -7 10 C-9 8 -9 8 -9.125 5.5625 C-8 3 -8 3 -6.14453125 2.0078125 C-4.11246238 1.25253027 -2.08710424 0.58476953 0 0 Z " fill="#212121" transform="translate(230,144)"/>
<path d="M0 0 C2.71940615 1.06833813 3.98526515 1.98120037 5.8125 4.3125 C8.53230259 7.65397175 11.43230055 9.59866383 15 12 C13 13 13 13 10.21484375 12.1796875 C9.13332031 11.74914062 8.05179688 11.31859375 6.9375 10.875 C5.85339844 10.45992187 4.76929688 10.04484375 3.65234375 9.6171875 C1 8 1 8 0.12890625 5.5078125 C0.03463425 3.67379352 0 1.83644026 0 0 Z " fill="#38A3DC" transform="translate(54,117)"/>
<path d="M0 0 C0.928125 0.20625 1.85625 0.4125 2.8125 0.625 C2.19972388 3.58675123 1.55877478 5.00558783 -0.1875 7.625 C-2.75 7.875 -2.75 7.875 -5.1875 7.625 C-6.1875 6.625 -6.1875 6.625 -6.4375 4.1875 C-6.355 3.341875 -6.2725 2.49625 -6.1875 1.625 C-3.1875 -0.375 -3.1875 -0.375 0 0 Z " fill="#1F1F1F" transform="translate(302.1875,146.375)"/>
<path d="M0 0 C3.125 -0.1875 3.125 -0.1875 6 0 C6.33 0.66 6.66 1.32 7 2 C5.35 2 3.7 2 2 2 C1.74984127 5.41642759 1.74984127 5.41642759 2 9 C2.99 9.66 3.98 10.32 5 11 C5.33 11.66 5.66 12.32 6 13 C3.29686424 13.21917317 1.56041618 13.32851983 -0.8125 11.9375 C-2.65150018 8.93702602 -2.30671285 6.43518387 -2 3 C-1.34 2.01 -0.68 1.02 0 0 Z " fill="#0F0F0F" transform="translate(323,141)"/>
<path d="M0 0 C0.99 0 1.98 0 3 0 C3 5.61 3 11.22 3 17 C2.01 17.33 1.02 17.66 0 18 C0 12.06 0 6.12 0 0 Z " fill="#010101" transform="translate(404,136)"/>
<path d="M0 0 C4.70588235 0.70588235 4.70588235 0.70588235 6 2 C6.46554364 9.21592649 6.46554364 9.21592649 4.8125 12 C2.44004321 13.30894168 0.6664882 13.21620175 -2 13 C-1.67 12.01 -1.34 11.02 -1 10 C-0.01 9.67 0.98 9.34 2 9 C2.2502157 6.08365871 2.2502157 6.08365871 2 3 C1.01 2.34 0.02 1.68 -1 1 C-0.67 0.67 -0.34 0.34 0 0 Z " fill="#131313" transform="translate(272,141)"/>
<path d="M0 0 C0.33 1.32 0.66 2.64 1 4 C2.65 4 4.3 4 6 4 C6 4.33 6 4.66 6 5 C4.35 5 2.7 5 1 5 C1.33 5.99 1.66 6.98 2 8 C4.64 7.67 7.28 7.34 10 7 C9 10 9 10 7 11 C1.74534161 11.44720497 1.74534161 11.44720497 -0.875 9.875 C-2.50531294 7.15781176 -2.33015665 5.10347254 -2 2 C-1.34 1.34 -0.68 0.68 0 0 Z " fill="#0E0E0E" transform="translate(391,143)"/>
<path d="M0 0 C0.33 0 0.66 0 1 0 C1.08703823 3.43734063 1.14040272 6.87439837 1.1875 10.3125 C1.22520508 11.77719727 1.22520508 11.77719727 1.26367188 13.27148438 C1.27817383 14.67817383 1.27817383 14.67817383 1.29296875 16.11328125 C1.3086792 16.97735596 1.32438965 17.84143066 1.34057617 18.73168945 C0.93240678 21.45018536 0.10407096 22.30363829 -2 24 C-3.37237824 20.03764478 -2.95917661 16.10864358 -2.6875 12 C-2.65205078 11.2884375 -2.61660156 10.576875 -2.58007812 9.84375 C-2.3483073 6.13541681 -2.02089554 3.16744444 0 0 Z " fill="#CCD5E3" transform="translate(161,46)"/>
<path d="M0 0 C2.39763185 2.39763185 2.34280586 3.33273498 2.625 6.625 C2.69976563 7.44226563 2.77453125 8.25953125 2.8515625 9.1015625 C2.90054687 9.72804688 2.94953125 10.35453125 3 11 C2.34 11 1.68 11 1 11 C0.67 15.29 0.34 19.58 0 24 C-0.33 24 -0.66 24 -1 24 C-1.02901394 20.5625177 -1.04680335 17.12506688 -1.0625 13.6875 C-1.07087891 12.71103516 -1.07925781 11.73457031 -1.08789062 10.72851562 C-1.09111328 9.79072266 -1.09433594 8.85292969 -1.09765625 7.88671875 C-1.10551147 6.59060669 -1.10551147 6.59060669 -1.11352539 5.26831055 C-1 3 -1 3 0 0 Z " fill="#425FA5" transform="translate(17,77)"/>
<path d="M0 0 C1.98 0 3.96 0 6 0 C5.52433594 0.84304687 5.52433594 0.84304687 5.0390625 1.703125 C3.93125475 4.15196317 3.61024601 6.08387855 3.375 8.75 C3.30023438 9.54921875 3.22546875 10.3484375 3.1484375 11.171875 C3.09945313 11.77515625 3.05046875 12.3784375 3 13 C2.01 12.67 1.02 12.34 0 12 C0 8.04 0 4.08 0 0 Z " fill="#090909" transform="translate(374,141)"/>
<path d="M0 0 C1.67542976 0.28604898 3.34385343 0.61781233 5 1 C5 2.98 5 4.96 5 7 C3.34385343 7.38218767 1.67542976 7.71395102 0 8 C-1 7 -1 7 -1.125 4 C-1 1 -1 1 0 0 Z " fill="#F5F5F5" transform="translate(285,143)"/>
<path d="M0 0 C1.67542976 0.28604898 3.34385343 0.61781233 5 1 C5 2.98 5 4.96 5 7 C3.34385343 7.38218767 1.67542976 7.71395102 0 8 C-1 7 -1 7 -1.125 4 C-1 1 -1 1 0 0 Z " fill="#F3F3F3" transform="translate(270,143)"/>
<path d="M0 0 C1.65 0.33 3.3 0.66 5 1 C5 4.96 5 8.92 5 13 C4.01 13 3.02 13 2 13 C1.92652344 11.95199219 1.92652344 11.95199219 1.8515625 10.8828125 C1.73941406 9.51769531 1.73941406 9.51769531 1.625 8.125 C1.55539062 7.22007812 1.48578125 6.31515625 1.4140625 5.3828125 C1.20431868 2.82058097 1.20431868 2.82058097 -1 1 C-0.67 0.67 -0.34 0.34 0 0 Z " fill="#090909" transform="translate(257,141)"/>
<path d="M0 0 C0.33 0 0.66 0 1 0 C1 1.98 1 3.96 1 6 C1.99 6.33 2.98 6.66 4 7 C-4.07744875 18.70615034 -4.07744875 18.70615034 -10 23 C-8.60701445 19.99868813 -6.96044932 17.48942591 -4.9375 14.875 C-2.13173871 11.23917241 -0.89693486 8.96934862 -0.4375 4.375 C-0.35371094 3.55773437 -0.26992187 2.74046875 -0.18359375 1.8984375 C-0.12300781 1.27195312 -0.06242187 0.64546875 0 0 Z " fill="#305AA8" transform="translate(124,87)"/>
<path d="M0 0 C1.65 0.33 3.3 0.66 5 1 C5 2.98 5 4.96 5 7 C3.34385343 7.38218767 1.67542976 7.71395102 0 8 C-0.33 7.67 -0.66 7.34 -1 7 C-0.71269945 4.66055264 -0.38063221 2.3260857 0 0 Z " fill="#F2F2F2" transform="translate(325,143)"/>
<path d="M0 0 C3.89393086 1.35834798 5.24431949 3.6566576 7.6875 6.9375 C7.3575 7.5975 7.0275 8.2575 6.6875 8.9375 C5.800625 8.31875 4.91375 7.7 4 7.0625 C1.22688816 5.28352259 -1.2265354 4.02666398 -4.3125 2.9375 C-4.3125 2.2775 -4.3125 1.6175 -4.3125 0.9375 C-2.3125 -0.0625 -2.3125 -0.0625 0 0 Z " fill="#3BA5DF" transform="translate(117.3125,36.0625)"/>
<path d="M0 0 C1.98 0 3.96 0 6 0 C5.67 1.65 5.34 3.3 5 5 C3.35 5 1.7 5 0 5 C0 3.35 0 1.7 0 0 Z " fill="#F9F9F9" transform="translate(347,139)"/>
<path d="M0 0 C3.375 -0.125 3.375 -0.125 7 0 C7.66 0.66 8.32 1.32 9 2 C6.42786866 3.61949011 5.32330841 4.04408751 2.25 3.625 C1.5075 3.41875 0.765 3.2125 0 3 C0 2.01 0 1.02 0 0 Z " fill="#D0D0D0" transform="translate(392,148)"/>
<path d="M0 0 C1.32695791 1.99043687 2.63966665 3.99045158 3.9375 6 C5.52483554 8.30885169 6.93736451 10.14362806 9 12 C8.67 12.66 8.34 13.32 8 14 C6.4641556 12.43122326 4.94668669 10.84443846 3.4375 9.25 C2.59058594 8.36828125 1.74367188 7.4865625 0.87109375 6.578125 C-1 4 -1 4 -0.77734375 1.671875 C-0.52082031 1.12015625 -0.26429687 0.5684375 0 0 Z " fill="#315BA2" transform="translate(69,95)"/>
<path d="M0 0 C0.66 0 1.32 0 2 0 C2.33 0.66 2.66 1.32 3 2 C3.99 2.33 4.98 2.66 6 3 C6 3.66 6 4.32 6 5 C4.35 5 2.7 5 1 5 C0.34 3.68 -0.32 2.36 -1 1 C-0.67 0.67 -0.34 0.34 0 0 Z " fill="#1C1C1C" transform="translate(237,149)"/>
<path d="M0 0 C1.65 0 3.3 0 5 0 C5 0.99 5 1.98 5 3 C3.35 3.33 1.7 3.66 0 4 C0 2.68 0 1.36 0 0 Z " fill="#E0E0E0" transform="translate(362,148)"/>
<path d="M0 0 C2.475 0.495 2.475 0.495 5 1 C5 1.99 5 2.98 5 4 C3.35 3.67 1.7 3.34 0 3 C0 2.01 0 1.02 0 0 Z " fill="#D6D6D6" transform="translate(239,148)"/>
<path d="M0 0 C1.65 0 3.3 0 5 0 C5 0.99 5 1.98 5 3 C3.35 3.33 1.7 3.66 0 4 C0 2.68 0 1.36 0 0 Z " fill="#E0E0E0" transform="translate(225,148)"/>
<path d="M0 0 C1.65 0 3.3 0 5 0 C4.67 0.99 4.34 1.98 4 3 C2.02 3.33 0.04 3.66 -2 4 C-2 3.34 -2 2.68 -2 2 C-1.34 2 -0.68 2 0 2 C0 1.34 0 0.68 0 0 Z " fill="#DFDFDF" transform="translate(362,143)"/>
<path d="M0 0 C1.65 0 3.3 0 5 0 C4.67 0.99 4.34 1.98 4 3 C2.02 3.33 0.04 3.66 -2 4 C-2 3.34 -2 2.68 -2 2 C-1.34 2 -0.68 2 0 2 C0 1.34 0 0.68 0 0 Z " fill="#DEDEDE" transform="translate(225,143)"/>
<path d="M0 0 C2.97 0.495 2.97 0.495 6 1 C6.33 2.32 6.66 3.64 7 5 C4.0625 4.1875 4.0625 4.1875 1 3 C0.67 2.01 0.34 1.02 0 0 Z " fill="#333333" transform="translate(240,140)"/>
<path d="M0 0 C1.32 0 2.64 0 4 0 C3.67 1.32 3.34 2.64 3 4 C1.68 3.67 0.36 3.34 -1 3 C-0.67 2.01 -0.34 1.02 0 0 Z " fill="#E9E9E9" transform="translate(300,148)"/>
<path d="M0 0 C-0.33 0.99 -0.66 1.98 -1 3 C-2.98 3.33 -4.96 3.66 -7 4 C-7 3.34 -7 2.68 -7 2 C-4 0 -4 0 0 0 Z " fill="#E9E9E9" transform="translate(304,143)"/>
<path d="M0 0 C0.33 0 0.66 0 1 0 C1.125 2.875 1.125 2.875 1 6 C0.34 6.66 -0.32 7.32 -1 8 C-1.99 7.67 -2.98 7.34 -4 7 C-2.68 4.69 -1.36 2.38 0 0 Z " fill="#2B4E9F" transform="translate(140,120)"/>
<path d="M0 0 C2 1 2 1 2 1 Z M-2 2 C-1.67 2.99 -1.34 3.98 -1 5 C-1.66 5 -2.32 5 -3 5 C-2.67 4.01 -2.34 3.02 -2 2 Z M-5 3 C-4.34 3.99 -3.68 4.98 -3 6 C-4.98 6.99 -4.98 6.99 -7 8 C-6.34 6.35 -5.68 4.7 -5 3 Z " fill="#2E4EA4" transform="translate(69,67)"/>
<path d="M0 0 C0.66 0 1.32 0 2 0 C2.33 2.31 2.66 4.62 3 7 C2.01 7.495 2.01 7.495 1 8 C0.67 5.36 0.34 2.72 0 0 Z " fill="#F1F4F6" transform="translate(157,38)"/>
<path d="M0 0 C3.68754757 0.49831724 5.60490662 1.10067643 8 4 C7.67 4.66 7.34 5.32 7 6 C5.83054208 5.19152271 4.66449539 4.37810888 3.5 3.5625 C2.8503125 3.11003906 2.200625 2.65757813 1.53125 2.19140625 C1.0259375 1.79824219 0.520625 1.40507813 0 1 C0 0.67 0 0.34 0 0 Z " fill="#2E9DD7" transform="translate(117,39)"/>
</svg>
