<?xml version="1.0" encoding="UTF-8"?>
<svg version="1.1" xmlns="http://www.w3.org/2000/svg" width="492" height="184">
<path d="M0 0 C162.36 0 324.72 0 492 0 C492 60.72 492 121.44 492 184 C329.64 184 167.28 184 0 184 C0 123.28 0 62.56 0 0 Z " fill="#FDFEFE" transform="translate(0,0)"/>
<path d="M0 0 C11.08841312 2.55886457 18.15800147 11.86843921 24 21 C28.42165187 28.99557964 31.17464003 37.07018143 33 46 C33.18433594 46.77085938 33.36867187 47.54171875 33.55859375 48.3359375 C35.73530664 61.47326663 33.54345127 75.08730234 31 88 C30.85546387 88.7523291 30.71092773 89.5046582 30.56201172 90.27978516 C28.60421022 100.22489643 25.7104598 108.95876482 21 118 C20.34064453 119.38058594 20.34064453 119.38058594 19.66796875 120.7890625 C9.8792995 140.36640101 -6.97225424 153.16079605 -27.39453125 160.1640625 C-48.35232852 165.587241 -70.49808604 162.62698609 -89.16943359 152.08056641 C-109.04849648 140.34613958 -121.25059383 122.49089215 -127.375 100.4375 C-129.72720203 91.16303724 -130.36781419 80.48389486 -129 71 C-128.34 70.01 -127.68 69.02 -127 68 C-126.8040625 68.969375 -126.608125 69.93875 -126.40625 70.9375 C-121.58030372 93.16652519 -110.04250772 111.64209053 -90.8125 124.25 C-73.8039663 134.33434957 -54.71276105 136.25264182 -35.5703125 131.9765625 C-30.11072061 130.48323868 -25.07491093 128.49480916 -20 126 C-19.07960938 125.55785156 -18.15921875 125.11570312 -17.2109375 124.66015625 C-12.00453683 121.88801666 -8.33403955 119.08423307 -5.77734375 113.6796875 C-3.2528959 104.97731953 -4.60332409 96.8386336 -7.9765625 88.6328125 C-12.9661442 75.79701835 -12.41299115 59.89317936 -8 47 C-5.890625 44.09765625 -5.890625 44.09765625 -4 42 C-2.35 42.33 -0.7 42.66 1 43 C1.01981934 43.6705542 1.03963867 44.3411084 1.06005859 45.03198242 C1.15559715 48.08420161 1.26515945 51.13576341 1.375 54.1875 C1.42140625 55.77014648 1.42140625 55.77014648 1.46875 57.38476562 C1.50742188 58.40634766 1.54609375 59.42792969 1.5859375 60.48046875 C1.6173584 61.41785889 1.6487793 62.35524902 1.68115234 63.32104492 C2.02022831 66.16995808 2.82257457 68.39520444 4 71 C7.40614946 70.97873538 7.40614946 70.97873538 11 70 C12.95811161 67.33483044 12.95811161 67.33483044 14 64 C14.52400391 62.700625 14.52400391 62.700625 15.05859375 61.375 C16.26017604 57.06725271 16.29219466 53.13552048 16.25 48.6875 C16.25773438 47.88376953 16.26546875 47.08003906 16.2734375 46.25195312 C16.22504195 31.2130375 10.65680998 17.65680998 0 7 C-0.125 3.375 -0.125 3.375 0 0 Z " fill="#1A3F9D" transform="translate(146,11)"/>
<path d="M0 0 C3.91467216 2.14650663 6.20356227 4.78771062 8.8125 8.375 C9.534375 7.6325 10.25625 6.89 11 6.125 C15.6743579 1.55451672 18.83348728 -1.3725413 25.5 -1.9375 C30.92350693 -1.84777286 35.45197352 0.08618572 39.35546875 3.87109375 C43.76964956 9.06196327 45.46931532 12.4773874 45.30078125 19.21875 C42.81590091 35.28101649 26.48989346 48.42616807 14.8125 58.375 C14.131875 58.98085937 13.45125 59.58671875 12.75 60.2109375 C10.8125 61.375 10.8125 61.375 8.875 61.30078125 C-3.94596604 55.54591581 -16.64285376 40.4117909 -23.1875 28.375 C-23.54585938 27.73949219 -23.90421875 27.10398437 -24.2734375 26.44921875 C-26.55561408 21.89533428 -27.09340695 17.34039563 -26.1875 12.375 C-23.8185231 6.73602507 -20.09710662 2.8971091 -15.1875 -0.625 C-9.81313291 -2.4164557 -5.11955434 -2.33676628 0 0 Z " fill="#4A99D8" transform="translate(88.1875,65.625)"/>
<path d="M0 0 C0.91136719 0.48082031 1.82273437 0.96164063 2.76171875 1.45703125 C10.47491271 5.82668822 16.53894515 11.04956655 22 18 C21.67 18.66 21.34 19.32 21 20 C20.30777344 19.41992188 20.30777344 19.41992188 19.6015625 18.828125 C7.73623742 9.35462434 -5.24269729 7.88400896 -20 9 C-33.3777594 11.22726217 -44.09239752 19.14501842 -52 30 C-57.16364176 38.58850619 -59.37884862 46.71056308 -59.3125 56.6875 C-59.30686035 57.57163574 -59.3012207 58.45577148 -59.29541016 59.36669922 C-59.00218257 75.23292452 -53.35962585 86.93338037 -42 98 C-40.04709764 99.53501435 -38.15866172 100.75876951 -36 102 C-38 103 -38 103 -40.50390625 102.25 C-57.08391557 95.47400641 -67.06572055 84.2900533 -74 68 C-79.16891553 54.94940477 -78.34554175 40.81940104 -73 28 C-66.56653726 14.10299761 -56.56159733 3.61029538 -42.1328125 -2.24609375 C-41.42898437 -2.49488281 -40.72515625 -2.74367188 -40 -3 C-38.69869141 -3.52980469 -38.69869141 -3.52980469 -37.37109375 -4.0703125 C-25.07612005 -7.46104684 -11.16595343 -5.94996959 0 0 Z " fill="#239EE3" transform="translate(106,29)"/>
<path d="M0 0 C1.20269531 -0.02578125 2.40539062 -0.0515625 3.64453125 -0.078125 C8.92841125 0.41123103 11.90755314 1.87357473 15.51953125 5.7578125 C17.82126206 10.57689293 17.82199907 14.84610736 17.875 20.125 C17.91762234 22.03913048 17.96314702 23.95319875 18.01171875 25.8671875 C18.03282715 26.77694336 18.05393555 27.68669922 18.07568359 28.62402344 C18.22836994 32.20981895 18.67130435 35.69958111 19.1875 39.25 C16.1875 41.25 16.1875 41.25 13.6875 41.0625 C11.05087925 40.20559826 9.93060252 39.36007147 8.1875 37.25 C7.465625 37.53875 6.74375 37.8275 6 38.125 C5.071875 38.49625 4.14375 38.8675 3.1875 39.25 C2.465625 39.62125 1.74375 39.9925 1 40.375 C-3.74438361 41.85103046 -9.13340272 42.57585182 -13.72265625 40.3046875 C-16.93399412 37.79558322 -18.94147491 35.21800318 -19.8125 31.25 C-19.7326137 27.41545748 -19.11060286 25.65057572 -16.8125 22.5625 C-9.89818204 17.23271324 -1.25402547 16.46409419 7.1875 15.25 C6.21973902 11.45452079 6.21973902 11.45452079 4.1875 8.25 C1.13380857 7.80835041 -1.76313529 7.77207572 -4.8125 8.25 C-7.79369541 10.47976163 -7.79369541 10.47976163 -9.8125 13.25 C-10.4725 13.91 -11.1325 14.57 -11.8125 15.25 C-16.36805556 14.69444444 -16.36805556 14.69444444 -17.8125 13.25 C-18.11328125 10.921875 -18.11328125 10.921875 -17.8125 8.25 C-16.16796875 6.265625 -16.16796875 6.265625 -14 4.5 C-13.29230469 3.90703125 -12.58460938 3.3140625 -11.85546875 2.703125 C-8.03308625 -0.01566332 -4.56586489 0.05834971 0 0 Z " fill="#18A762" transform="translate(305.8125,83.75)"/>
<path d="M0 0 C3.91467216 2.14650663 6.20356227 4.78771062 8.8125 8.375 C9.534375 7.6325 10.25625 6.89 11 6.125 C15.6743579 1.55451672 18.83348728 -1.3725413 25.5 -1.9375 C30.92350693 -1.84777286 35.45197352 0.08618572 39.35546875 3.87109375 C43.76734969 9.05925873 45.44998763 12.47062351 45.31640625 19.203125 C43.73280766 29.17120292 36.73301942 37.41852983 29.8125 44.375 C29.8125 40.77437675 30.61583193 40.05203713 32.75 37.25 C35.87033288 32.70259545 37.26220231 28.91784242 36.8125 23.375 C34.98775555 18.00214133 31.86447929 14.90098965 26.8125 12.375 C20.66784299 11.86294525 17.74300044 12.34095418 12.8125 16.375 C11.44363049 17.67182374 10.0955709 18.99323134 8.8125 20.375 C8.07 19.42625 7.3275 18.4775 6.5625 17.5 C3.73627879 14.15933478 3.73627879 14.15933478 -0.1875 12.375 C-5.54718704 11.94962801 -8.85689687 11.88645859 -13.1875 15.375 C-15.85541956 17.68238989 -17.02920861 19.35649882 -17.57421875 22.86328125 C-17.8867322 30.65456495 -16.14442057 36.08953271 -10.9375 41.875 C-10.36 42.37 -9.7825 42.865 -9.1875 43.375 C-9.5175 44.035 -9.8475 44.695 -10.1875 45.375 C-17.90230634 37.78265091 -26.21266131 27.84274596 -26.9375 16.5 C-26.3566133 10.24965913 -22.67225877 5.45951452 -18.0625 1.4375 C-12.4029181 -2.62263484 -6.23719333 -2.84690074 0 0 Z " fill="#1C429E" transform="translate(88.1875,65.625)"/>
<path d="M0 0 C1.134375 0.020625 2.26875 0.04125 3.4375 0.0625 C7.18359289 6.87198661 9.60435488 14.01594133 12.01171875 21.37353516 C12.69350432 23.45583835 13.38510016 25.53469477 14.078125 27.61328125 C17.4375 37.76668937 17.4375 37.76668937 17.4375 40.0625 C18.0975 40.0625 18.7575 40.0625 19.4375 40.0625 C19.69660156 38.77214844 19.95570313 37.48179688 20.22265625 36.15234375 C21.34138729 31.12149785 23.02272697 26.42564953 24.875 21.625 C27.10836255 15.72963461 29.23303418 9.88358087 30.83203125 3.77734375 C31.4375 2.0625 31.4375 2.0625 33.4375 0.0625 C36.4375 -0.1875 36.4375 -0.1875 39.4375 0.0625 C40.0975 0.7225 40.7575 1.3825 41.4375 2.0625 C41.19830357 9.18890389 38.72835104 15.43865323 36.25 22.0625 C35.84434814 23.16231201 35.43869629 24.26212402 35.02075195 25.39526367 C34.2075601 27.59724858 33.39113553 29.79804267 32.57128906 31.99755859 C31.57336147 34.69522935 30.6028207 37.39997977 29.6484375 40.11328125 C29.14074008 41.5338953 28.63293724 42.95447168 28.125 44.375 C27.69574219 45.58800781 27.26648438 46.80101562 26.82421875 48.05078125 C25.3927562 51.15967597 24.09574096 52.92972527 21.4375 55.0625 C18.5 55.625 18.5 55.625 15.4375 55.0625 C11.43877642 51.68416211 9.63675105 48.8285644 8.0625 43.875 C7.65386719 42.6478125 7.24523437 41.420625 6.82421875 40.15625 C6.60556152 39.49753906 6.3869043 38.83882812 6.16162109 38.16015625 C4.84785649 34.35440256 3.3516124 30.61985528 1.875 26.875 C1.27955282 25.34520581 0.68449117 23.81526149 0.08984375 22.28515625 C-0.90047757 19.74323693 -1.90776156 17.21164174 -2.93359375 14.68359375 C-6.29645579 6.13098615 -6.29645579 6.13098615 -4.5625 1.0625 C-3.5625 0.0625 -3.5625 0.0625 0 0 Z " fill="#15A660" transform="translate(193.5625,69.9375)"/>
<path d="M0 0 C0.99 0.103125 1.98 0.20625 3 0.3125 C5.25870108 3.70055161 5.29259413 5.08600741 5.4140625 9.07421875 C5.45273437 10.19248047 5.49140625 11.31074219 5.53125 12.46289062 C5.5621875 13.63013672 5.593125 14.79738281 5.625 16 C5.66367187 17.17884766 5.70234375 18.35769531 5.7421875 19.57226562 C5.83654391 22.48551977 5.92213161 25.39876607 6 28.3125 C6.39791748 27.88316162 6.79583496 27.45382324 7.20581055 27.01147461 C9.01718003 25.07540082 10.85165745 23.16287091 12.6875 21.25 C13.62625977 20.23583008 13.62625977 20.23583008 14.58398438 19.20117188 C16.3233903 17.40712493 17.96474507 15.76362006 20 14.3125 C22.95703125 14.37890625 22.95703125 14.37890625 25 15.3125 C25.7109375 17.55078125 25.7109375 17.55078125 26 20.3125 C24.6015625 22.48046875 24.6015625 22.48046875 22.625 24.5 C19.9841897 27.1742923 19.9841897 27.1742923 18 30.3125 C18.90417591 32.21683308 18.90417591 32.21683308 20.30859375 34.26953125 C21.05786133 35.44418945 21.05786133 35.44418945 21.82226562 36.64257812 C22.89257099 38.28750934 23.96545842 39.93076358 25.04101562 41.57226562 C25.7922168 42.75272461 25.7922168 42.75272461 26.55859375 43.95703125 C27.02579834 44.67221924 27.49300293 45.38740723 27.97436523 46.12426758 C29.19778338 48.73447869 29.33640207 50.46121878 29 53.3125 C27 55.3125 27 55.3125 24.59765625 55.72265625 C22 55.3125 22 55.3125 20.12109375 53.37109375 C19.56550781 52.50613281 19.00992187 51.64117187 18.4375 50.75 C17.84710938 49.84121094 17.25671875 48.93242188 16.6484375 47.99609375 C16.10445313 47.11050781 15.56046875 46.22492188 15 45.3125 C14.55914062 44.60222656 14.11828125 43.89195313 13.6640625 43.16015625 C11 38.69171099 11 38.69171099 11 36.3125 C8.33598317 37.58448441 8.33598317 37.58448441 6 40.3125 C5.50950349 43.12325827 5.375107 45.80471063 5.3359375 48.65625 C4.94460858 51.7504787 4.15848958 53.09219211 2 55.3125 C-0.5625 55.75 -0.5625 55.75 -3 55.3125 C-5.16445492 52.06581762 -5.25197394 51.16384041 -5.25878906 47.41381836 C-5.26509338 46.41946274 -5.27139771 45.42510712 -5.27789307 44.40061951 C-5.2738446 43.32868851 -5.26979614 42.25675751 -5.265625 41.15234375 C-5.26753845 40.05152969 -5.2694519 38.95071564 -5.27142334 37.81654358 C-5.27278479 35.48894014 -5.26909113 33.1613291 -5.26074219 30.83374023 C-5.25003217 27.26073253 -5.2606443 23.68822649 -5.2734375 20.11523438 C-5.2721161 17.85676972 -5.26955411 15.59830538 -5.265625 13.33984375 C-5.27169769 11.7289109 -5.27169769 11.7289109 -5.27789307 10.08543396 C-5.27158875 9.0942305 -5.26528442 8.10302704 -5.25878906 7.08178711 C-5.25719788 6.20703232 -5.25560669 5.33227753 -5.25396729 4.43101501 C-4.82190064 0.8268513 -3.45810405 0.36021917 0 0 Z " fill="#14A560" transform="translate(450,69.6875)"/>
<path d="M0 0 C3.24208567 0.35049575 4.61527704 0.56221181 6.8125 3.0625 C7.204375 3.701875 7.59625 4.34125 8 5 C8.763125 4.360625 9.52625 3.72125 10.3125 3.0625 C14.10942933 0.14857749 17.17700665 -0.3464126 21.9375 -0.28515625 C26.08418047 0.28815374 28.83288598 2.78346139 31.64306641 5.71264648 C33.50283907 8.8476249 33.38834063 11.21687051 33.3984375 14.84765625 C33.40130768 15.50076279 33.40417786 16.15386932 33.40713501 16.82676697 C33.4091703 18.20263541 33.40367778 19.57853313 33.39111328 20.9543457 C33.37502359 23.05941344 33.39099077 25.16256911 33.41015625 27.26757812 C33.40817423 28.60677506 33.40433139 29.94597081 33.3984375 31.28515625 C33.39505371 32.50082275 33.39166992 33.71648926 33.38818359 34.96899414 C33 38 33 38 31.63525391 39.92749023 C30 41 30 41 27.4375 40.875 C25 40 25 40 23 37 C22.72875977 34.41210938 22.72875977 34.41210938 22.69140625 31.34375 C22.66626953 30.23902344 22.64113281 29.13429688 22.61523438 27.99609375 C22.58007896 25.66542022 22.5488287 23.33468451 22.52148438 21.00390625 C22.49505859 19.89917969 22.46863281 18.79445313 22.44140625 17.65625 C22.42795166 16.64369141 22.41449707 15.63113281 22.40063477 14.58789062 C22.19914353 11.9780285 22.19914353 11.9780285 20.65991211 10.16210938 C18.12433573 8.38694485 16.01208468 8.74899294 13 9 C12.01 9.33 11.02 9.66 10 10 C7.5628036 17.13044622 7.60605226 24.28356087 7.43359375 31.75 C7.40394531 32.65492187 7.37429688 33.55984375 7.34375 34.4921875 C7.32505859 35.31058105 7.30636719 36.12897461 7.28710938 36.97216797 C7 39 7 39 5 41 C2.5625 41.375 2.5625 41.375 0 41 C-2.55076277 38.57186273 -2.98724109 37.11240681 -3.38818359 33.58007812 C-3.40789292 32.23060834 -3.41033843 30.88081123 -3.3984375 29.53125 C-3.40130768 28.813927 -3.40417786 28.096604 -3.40713501 27.35754395 C-3.40917169 25.84463713 -3.40366944 24.33170374 -3.39111328 22.81884766 C-3.37505237 20.50753716 -3.39097366 18.19797508 -3.41015625 15.88671875 C-3.40817375 14.41405865 -3.40432992 12.94139964 -3.3984375 11.46875 C-3.40451019 10.78010864 -3.41058289 10.09146729 -3.4168396 9.38195801 C-3.35731396 5.30632155 -2.85626053 2.96877129 0 0 Z " fill="#18A762" transform="translate(401,84)"/>
<path d="M0 0 C3.0625 0.375 3.0625 0.375 4.7355957 1.81347656 C6.75830899 5.71822501 6.43202485 9.4023207 6.35546875 13.734375 C6.35122391 14.63875305 6.34697906 15.5431311 6.34260559 16.47491455 C6.32583574 19.35858139 6.28818669 22.241545 6.25 25.125 C6.23495097 27.08202114 6.22126295 29.03905326 6.20898438 30.99609375 C6.17593774 35.78933275 6.12416705 40.58204721 6.0625 45.375 C6.7738208 45.36452637 7.4851416 45.35405273 8.21801758 45.34326172 C11.43697586 45.30171999 14.65587776 45.27567961 17.875 45.25 C18.99455078 45.23324219 20.11410156 45.21648437 21.26757812 45.19921875 C22.34072266 45.19277344 23.41386719 45.18632813 24.51953125 45.1796875 C26.0041687 45.16397705 26.0041687 45.16397705 27.51879883 45.14794922 C30.0625 45.375 30.0625 45.375 33.0625 47.375 C33.4375 49.875 33.4375 49.875 33.0625 52.375 C28.10081068 55.68279288 22.14100234 54.70776765 16.32910156 54.69067383 C14.07047402 54.68751117 11.81315336 54.71098804 9.5546875 54.73632812 C8.11979332 54.73860094 6.68489562 54.7393047 5.25 54.73828125 C3.94417969 54.74126221 2.63835937 54.74424316 1.29296875 54.74731445 C-1.9375 54.375 -1.9375 54.375 -3.61613464 53.15216064 C-5.34212997 50.83079589 -5.31192608 49.44585687 -5.30981445 46.56811523 C-5.31604324 45.59378036 -5.32227203 44.6194455 -5.32868958 43.61558533 C-5.31947983 42.56552811 -5.31027008 41.51547089 -5.30078125 40.43359375 C-5.30127975 39.35497574 -5.30177826 38.27635773 -5.30229187 37.16505432 C-5.2999507 34.88451292 -5.29021968 32.60396897 -5.27368164 30.32348633 C-5.25006978 26.82284584 -5.25312293 23.32296559 -5.25976562 19.82226562 C-5.25418972 17.60937044 -5.24708039 15.39647847 -5.23828125 13.18359375 C-5.23919266 12.1315123 -5.24010406 11.07943085 -5.24104309 9.99546814 C-5.23151108 9.02428543 -5.22197906 8.05310272 -5.2121582 7.05249023 C-5.20755081 6.19550034 -5.20294342 5.33851044 -5.19819641 4.45555115 C-4.75559034 0.92322565 -3.38043025 0.43154429 0 0 Z " fill="#17A762" transform="translate(338.9375,69.625)"/>
<path d="M0 0 C2.5625 0.3125 2.5625 0.3125 4.2109375 1.4765625 C6.09882761 4.0410375 5.86099149 5.85524119 5.75 9 C5.72292969 9.99386719 5.69585937 10.98773438 5.66796875 12.01171875 C5.63316406 12.77097656 5.59835937 13.53023437 5.5625 14.3125 C7.8725 14.6425 10.1825 14.9725 12.5625 15.3125 C12.8925 16.9625 13.2225 18.6125 13.5625 20.3125 C11.5625 21.3125 11.5625 21.3125 5.5625 21.3125 C5.8925 29.2325 6.2225 37.1525 6.5625 45.3125 C9.5325 45.6425 12.5025 45.9725 15.5625 46.3125 C15.8925 47.9625 16.2225 49.6125 16.5625 51.3125 C12.35708642 54.79284227 8.33034521 54.812728 3.09765625 54.671875 C0.5625 54.3125 0.5625 54.3125 -2.0625 52.5 C-4.44483716 48.70991816 -4.55651637 45.71085686 -4.53515625 41.33203125 C-4.53193359 40.16865234 -4.52871094 39.00527344 -4.52539062 37.80664062 C-4.51701172 36.59169922 -4.50863281 35.37675781 -4.5 34.125 C-4.49548828 32.89845703 -4.49097656 31.67191406 -4.48632812 30.40820312 C-4.47453065 27.37625332 -4.45806921 24.34440094 -4.4375 21.3125 C-6.0875 21.3125 -7.7375 21.3125 -9.4375 21.3125 C-10.0625 18.9375 -10.0625 18.9375 -10.4375 16.3125 C-9.7775 15.6525 -9.1175 14.9925 -8.4375 14.3125 C-7.1175 14.3125 -5.7975 14.3125 -4.4375 14.3125 C-4.46070313 13.46945313 -4.48390625 12.62640625 -4.5078125 11.7578125 C-4.53488281 10.11425781 -4.53488281 10.11425781 -4.5625 8.4375 C-4.58570313 7.34695312 -4.60890625 6.25640625 -4.6328125 5.1328125 C-4.38045663 1.4887938 -3.66627079 0.47003472 0 0 Z " fill="#15A660" transform="translate(268.4375,70.6875)"/>
<path d="M0 0 C2.4375 0.8125 2.4375 0.8125 4.4375 2.8125 C4.64940483 5.34669345 4.74148746 7.76887776 4.73828125 10.3046875 C4.74256638 11.04703644 4.7468515 11.78938538 4.75126648 12.55422974 C4.7570135 14.12614929 4.75750729 15.69809544 4.75317383 17.27001953 C4.75002119 19.67136302 4.77344087 22.07146585 4.79882812 24.47265625 C4.80110188 25.99999845 4.80180426 27.52734395 4.80078125 29.0546875 C4.809991 29.77147675 4.81920074 30.48826599 4.82868958 31.22677612 C4.79979427 34.35321509 4.60408996 36.51203512 3.07495117 39.27001953 C1.4375 40.8125 1.4375 40.8125 -1.125 41.25 C-1.929375 41.105625 -2.73375 40.96125 -3.5625 40.8125 C-6.02913039 37.11255442 -5.86855136 34.25168703 -5.86328125 29.96875 C-5.86756638 29.20324829 -5.8718515 28.43774658 -5.87626648 27.64904785 C-5.88200517 26.03182972 -5.88251342 24.41458577 -5.87817383 22.79736328 C-5.87501149 20.32149347 -5.89848531 17.84681603 -5.92382812 15.37109375 C-5.92610092 13.79948068 -5.92680471 12.22786438 -5.92578125 10.65625 C-5.934991 9.91556274 -5.94420074 9.17487549 -5.95368958 8.41174316 C-5.90777782 3.3198066 -5.90777782 3.3198066 -4.19995117 0.81054688 C-2.5625 -0.1875 -2.5625 -0.1875 0 0 Z " fill="#16A661" transform="translate(247.5625,84.1875)"/>
<path d="M0 0 C2.5 0.25 2.5 0.25 4.5 2.25 C4.69982025 5.02335427 4.779792 7.69469643 4.765625 10.46875 C4.76753845 11.28243042 4.7694519 12.09611084 4.77142334 12.93444824 C4.77278527 14.656009 4.76908828 16.37758003 4.76074219 18.09912109 C4.75004258 20.7394917 4.760637 23.37918189 4.7734375 26.01953125 C4.77211591 27.69010567 4.76955352 29.36067967 4.765625 31.03125 C4.76967346 31.82398315 4.77372192 32.61671631 4.77789307 33.43347168 C4.72992027 39.02007973 4.72992027 39.02007973 2.5 41.25 C0 41.5 0 41.5 -2.5 41.25 C-5.074325 38.675675 -4.74775746 36.94287354 -4.77789307 33.43347168 C-4.7738446 32.64073853 -4.76979614 31.84800537 -4.765625 31.03125 C-4.76753845 30.21756958 -4.7694519 29.40388916 -4.77142334 28.56555176 C-4.77278527 26.843991 -4.76908828 25.12241997 -4.76074219 23.40087891 C-4.75004258 20.7605083 -4.760637 18.12081811 -4.7734375 15.48046875 C-4.77211591 13.80989433 -4.76955352 12.13932033 -4.765625 10.46875 C-4.76967346 9.67601685 -4.77372192 8.88328369 -4.77789307 8.06652832 C-4.71267176 0.47126718 -4.71267176 0.47126718 0 0 Z " fill="#11A55E" transform="translate(383.5,83.75)"/>
<path d="M0 0 C6.39727463 0.84686641 10.65505401 4.39083432 15 9 C19.4407334 17.1876022 20.16996732 25.92663854 20.125 35.0625 C20.13080078 36.24682617 20.13080078 36.24682617 20.13671875 37.45507812 C20.1300451 41.43590915 19.98504182 45.11455726 19 49 C18.67 49 18.34 49 18 49 C17.87625 47.8140625 17.7525 46.628125 17.625 45.40625 C15.92313415 31.32930462 12.45624035 18.04284887 1.27734375 8.4609375 C0 7 0 7 -0.4375 3.0625 C-0.293125 2.051875 -0.14875 1.04125 0 0 Z " fill="#1D429D" transform="translate(140,24)"/>
<path d="M0 0 C0.30347349 7.89031079 0.30347349 7.89031079 -2 11 C-5.62219721 13.78630555 -9.64272447 13.28111455 -14 13 C-16 11 -16 11 -16.25 8 C-16 5 -16 5 -14 3 C-12.20961532 2.38919584 -10.39201699 1.85606821 -8.5625 1.375 C-7.59441406 1.11460938 -6.62632812 0.85421875 -5.62890625 0.5859375 C-3 0 -3 0 0 0 Z " fill="#F8FCFA" transform="translate(313,105)"/>
<path d="M0 0 C6.98619078 7.98421803 7.1876276 18.66126376 7.25 28.75 C7.270625 29.59949219 7.29125 30.44898437 7.3125 31.32421875 C7.31765625 32.14019531 7.3228125 32.95617188 7.328125 33.796875 C7.34214355 34.90047363 7.34214355 34.90047363 7.35644531 36.02636719 C6.90636117 38.51847694 5.90938124 39.40317754 4 41 C2.8132957 36.83148407 3.01455317 32.85606465 3.125 28.5625 C3.2510202 19.8468374 1.81756336 12.13024328 -0.66015625 3.7734375 C-1 2 -1 2 0 0 Z " fill="#DEE4EC" transform="translate(156,31)"/>
<path d="M0 0 C6.57692308 0.57692308 6.57692308 0.57692308 8 2 C8.1875 4.4375 8.1875 4.4375 8 7 C6 9 6 9 3 9.25 C0 9 0 9 -2 7 C-2.25 4.5 -2.25 4.5 -2 2 C-1.34 1.34 -0.68 0.68 0 0 Z " fill="#1AA863" transform="translate(244,70)"/>
<path d="M0 0 C3.625 0.375 3.625 0.375 7 1 C7.04241723 3.33294775 7.04092937 5.66702567 7 8 C6 9 6 9 2.5 9.125 C-1 9 -1 9 -2 8 C-2.1875 5.0625 -2.1875 5.0625 -2 2 C-1.34 1.34 -0.68 0.68 0 0 Z " fill="#17A661" transform="translate(381,70)"/>
<path d="M0 0 C0.33 0 0.66 0 1 0 C1.09796875 0.79664062 1.1959375 1.59328125 1.296875 2.4140625 C2.43011554 10.44443941 3.85122922 15.4661063 10 21 C9.67 21.66 9.34 22.32 9 23 C-5 8.38997821 -5 8.38997821 -5 2 C-4.34 2 -3.68 2 -3 2 C-2.67 2.99 -2.34 3.98 -2 5 C-1.34 3.35 -0.68 1.7 0 0 Z " fill="#2851A1" transform="translate(69,88)"/>
<path d="M0 0 C2 2 2 2 2.13525391 4.24658203 C2.08288574 5.15778809 2.03051758 6.06899414 1.9765625 7.0078125 C1.89921875 8.48701172 1.89921875 8.48701172 1.8203125 9.99609375 C1.75585938 11.02863281 1.69140625 12.06117187 1.625 13.125 C1.56828125 14.16527344 1.5115625 15.20554687 1.453125 16.27734375 C1.31138791 18.85223418 1.15995446 21.4261874 1 24 C0.34 24 -0.32 24 -1 24 C-1.02901394 20.5625177 -1.04680335 17.12506688 -1.0625 13.6875 C-1.07087891 12.71103516 -1.07925781 11.73457031 -1.08789062 10.72851562 C-1.09111328 9.79072266 -1.09433594 8.85292969 -1.09765625 7.88671875 C-1.10551147 6.59060669 -1.10551147 6.59060669 -1.11352539 5.26831055 C-1 3 -1 3 0 0 Z " fill="#3656A2" transform="translate(18,79)"/>
<path d="M0 0 C0.12375 0.639375 0.2475 1.27875 0.375 1.9375 C0.58125 2.618125 0.7875 3.29875 1 4 C1.66 4.33 2.32 4.66 3 5 C1.75758865 6.77616574 0.50575129 8.54574043 -0.75 10.3125 C-1.44609375 11.29863281 -2.1421875 12.28476563 -2.859375 13.30078125 C-4.77078318 15.7109693 -6.45209133 17.31860982 -9 19 C-7.67916734 16.24215033 -6.19726542 13.72822354 -4.5 11.1875 C-2.16534735 7.51679244 -0.96877841 4.22739669 0 0 Z " fill="#2B51A1" transform="translate(126,91)"/>
<path d="M0 0 C3.68754757 0.49831724 5.60490662 1.10067643 8 4 C6.68 4 5.36 4 4 4 C4 4.99 4 5.98 4 7 C2.68 7 1.36 7 0 7 C0 4.69 0 2.38 0 0 Z " fill="#3555A4" transform="translate(140,24)"/>
<path d="M0 0 C0.33 0 0.66 0 1 0 C1.18451025 10.55808656 1.18451025 10.55808656 0 15 C-0.33 15 -0.66 15 -1 15 C-1.22134176 12.87631556 -1.42670007 10.75095976 -1.625 8.625 C-1.74101562 7.44164063 -1.85703125 6.25828125 -1.9765625 5.0390625 C-1.98429688 4.03617188 -1.99203125 3.03328125 -2 2 C-1.34 1.34 -0.68 0.68 0 0 Z " fill="#254798" transform="translate(159,58)"/>
<path d="M0 0 C1.32 0.33 2.64 0.66 4 1 C3.01 1.33 2.02 1.66 1 2 C-1.03960471 4.9025144 -2.35341074 7.50841798 -3 11 C-3.66 11 -4.32 11 -5 11 C-4.54663921 6.12637153 -3.2910841 3.60957611 0 0 Z " fill="#26489C" transform="translate(142,53)"/>
<path d="M0 0 C3.12613393 2.96160056 5.04783565 5.09567131 7 9 C4.03 7.02 1.06 5.04 -2 3 C-1.34 2.67 -0.68 2.34 0 2 C0 1.34 0 0.68 0 0 Z " fill="#55ADD8" transform="translate(121,40)"/>
<path d="M0 0 C2.64 1.65 5.28 3.3 8 5 C6 6 6 6 4.0546875 5.44140625 C3.33539063 5.15136719 2.61609375 4.86132812 1.875 4.5625 C1.15054688 4.27503906 0.42609375 3.98757812 -0.3203125 3.69140625 C-1.15175781 3.34916016 -1.15175781 3.34916016 -2 3 C-1.34 2.67 -0.68 2.34 0 2 C0 1.34 0 0.68 0 0 Z " fill="#45A4D6" transform="translate(62,126)"/>
</svg>
